<?xml version="1.0" standalone="no"?>
<!DOCTYPE svg PUBLIC "-//W3C//DTD SVG 20010904//EN"
 "http://www.w3.org/TR/2001/REC-SVG-20010904/DTD/svg10.dtd">
<svg version="1.0" xmlns="http://www.w3.org/2000/svg"
 width="700.000000pt" height="700.000000pt" viewBox="0 0 700.000000 700.000000"
 preserveAspectRatio="xMidYMid meet">
<metadata>
Created by potrace 1.14, written by Peter Selinger 2001-2017
</metadata>
<g transform="translate(0.000000,700.000000) scale(0.100000,-0.100000)"
fill="#000000" stroke="none">
<path d="M2250 4659 c-110 -9 -193 -34 -305 -89 -224 -110 -390 -311 -457
-556 -17 -63 -22 -107 -22 -219 0 -168 14 -235 84 -380 55 -116 76 -145 168
-238 176 -180 401 -266 657 -254 139 7 207 23 323 78 311 145 501 437 507 781
2 90 5 111 21 129 25 28 106 69 169 85 99 27 208 13 310 -38 83 -43 88 -52 90
-176 8 -417 298 -766 704 -848 111 -22 294 -15 401 16 295 83 531 322 612 617
32 115 32 336 0 446 -72 253 -228 444 -452 557 -190 95 -411 119 -620 65 -199
-51 -403 -203 -516 -385 l-37 -60 -42 25 c-83 48 -192 77 -310 82 -137 6 -228
-12 -341 -66 l-82 -39 -45 71 c-173 273 -487 425 -817 396z m267 -314 c251
-83 417 -328 399 -590 -10 -147 -65 -267 -175 -376 -119 -119 -242 -169 -413
-169 -220 0 -419 124 -515 321 -48 98 -63 161 -63 266 0 234 147 448 371 539
124 50 261 53 396 9z m2313 9 c242 -70 420 -307 420 -557 0 -105 -15 -168 -63
-266 -96 -197 -295 -321 -515 -321 -171 0 -294 50 -413 169 -110 109 -165 229
-175 376 -21 294 183 552 486 615 60 12 192 4 260 -16z"/>
<path d="M2215 4056 c-61 -29 -117 -84 -147 -145 -33 -68 -31 -178 5 -247 96
-188 352 -218 483 -58 70 85 86 216 38 312 -69 139 -243 202 -379 138z"/>
<path d="M4563 4064 c-58 -21 -127 -85 -157 -146 -20 -40 -26 -67 -26 -118 0
-123 49 -208 151 -265 47 -26 64 -30 134 -30 64 0 89 5 125 24 62 32 107 77
138 136 35 68 37 178 4 246 -28 58 -81 113 -135 141 -55 28 -174 34 -234 12z"/>
<path d="M2743 2330 c-52 -12 -83 -38 -105 -88 -19 -42 -20 -53 -9 -142 53
-470 448 -811 911 -787 324 17 596 193 740 482 62 122 90 231 93 350 2 80 -1
94 -21 123 -46 63 -62 67 -324 70 l-236 4 -4 -106 c-3 -117 -15 -144 -78 -177
-30 -16 -58 -19 -210 -19 -152 0 -180 3 -210 19 -62 33 -74 60 -80 174 l-5
102 -215 2 c-118 0 -230 -2 -247 -7z"/>
</g>
</svg>
